<?xml version="1.0" encoding="UTF-8" standalone="no"?>
<!-- Created with Inkscape (http://www.inkscape.org/) -->

<svg
   width="30mm"
   height="30mm"
   viewBox="0 0 30 30"
   version="1.1"
   id="svg1"
   xmlns:inkscape="http://www.inkscape.org/namespaces/inkscape"
   xmlns:sodipodi="http://sodipodi.sourceforge.net/DTD/sodipodi-0.dtd"
   xmlns="http://www.w3.org/2000/svg"
   xmlns:svg="http://www.w3.org/2000/svg">
  <sodipodi:namedview
     id="namedview1"
     pagecolor="#ffffff"
     bordercolor="#000000"
     borderopacity="0.25"
     inkscape:showpageshadow="2"
     inkscape:pageopacity="0.0"
     inkscape:pagecheckerboard="0"
     inkscape:deskcolor="#d1d1d1"
     inkscape:document-units="mm">
    <inkscape:page
       x="0"
       y="0"
       width="30"
       height="30"
       id="page2"
       margin="0"
       bleed="0" />
  </sodipodi:namedview>
  <defs
     id="defs1" />
  <g
     inkscape:label="Vrstva 1"
     inkscape:groupmode="layer"
     id="layer1">
    <path
       style="fill:none;fill-opacity:1;stroke:#000000;stroke-width:1;stroke-dasharray:none;stroke-opacity:1"
       d="m 6.1690646,7.8754017 c 0.06788,1.9248675 0.2774598,3.8415043 0.1968852,5.7752943 -0.010967,0.263195 -0.054662,0.524346 -0.065629,0.78754 -0.020037,0.480858 0.021855,0.963046 0,1.443824 -0.038553,0.848165 -0.1032002,0.654815 -0.065628,1.443824 -0.061477,0.384571 0.1025372,0.742326 0.1312569,1.115682 0.020135,0.26174 -0.021802,0.525933 0,0.78754 0.049272,0.591263 0.085758,1.18048 0.1312566,1.771965 0.038791,0.504282 0.00484,1.016205 -0.065628,1.509452 -0.073306,0.513138 0.085176,1.064024 0,1.57508 -0.011372,0.06824 -0.052062,0.129051 -0.065628,0.196886 -0.078956,0.394779 0.044423,0.847131 0,1.246938 -0.00996,0.08965 -0.065629,0.172316 -0.065629,0.262513 0,0.188285 0.065629,0.336743 0.065629,0.525027 0,0.449709 -0.027672,0.0862 0.065628,0.459398 0.010612,0.04245 -0.030938,0.100319 0,0.131257 0.019415,0.01942 0.5754555,-0.06617 0.590655,-0.06563 0.5251477,0.01876 1.0500538,0.04375 1.5750805,0.06563 1.0500534,0.04375 2.0998422,0.0944 3.1501602,0.131257 0.666913,0.02339 1.369399,0.05116 2.034479,0 0.201035,-0.01548 0.327156,-0.06563 0.525027,-0.06563 1.840452,0 3.687116,0.05131 5.512781,-0.131257 0.363094,-0.03631 0.750197,0 1.115682,0 0.214716,0 0.326815,-0.01609 0.525027,-0.06563 0.432961,-0.108239 0.93992,0.08766 1.378195,0 0.06784,-0.01357 0.128648,-0.05426 0.196885,-0.06563 0.206098,-0.03435 0.816109,0.08416 0.984425,0 0.05534,-0.02767 0.07591,-0.103585 0.131257,-0.131258 0.06188,-0.03094 0.142866,-0.02241 0.196885,-0.06563 0.616272,-0.493019 0.430072,-2.037331 0.39377,-2.690763 -0.0097,-0.174739 0.01092,-0.350359 0,-0.525027 -0.022,-0.352054 -0.107793,-0.698093 -0.131257,-1.050053 -0.02757,-0.413529 0.03178,-0.833735 0,-1.246939 -0.03064,-0.398372 -0.09664,-0.778184 -0.06563,-1.18131 0.04693,-0.61008 0.174759,-1.294182 0.131257,-1.903222 -0.02204,-0.308589 -0.109215,-0.610208 -0.131257,-0.918797 -0.02026,-0.283667 0.02362,-0.569761 0,-0.853169 -0.01105,-0.132607 -0.05358,-0.261249 -0.06563,-0.39377 -0.03886,-0.42749 -0.05899,-1.227798 0,-1.640708 0.04119,-0.288323 0.115994,-0.616603 0.06563,-0.918797 -0.04008,-0.240472 -0.106408,-0.473428 -0.131257,-0.721912 -0.08116,-0.811561 0,-1.677562 0,-2.4938772 0,-0.2488477 0.07863,-1.1026828 0.06563,-1.115682 -0.01547,-0.015467 -0.05016,0.015467 -0.06563,0 -0.03094,-0.030938 0.03094,-0.1003191 0,-0.1312566 -0.03094,-0.030938 -0.08881,0.010612 -0.131256,0 -0.06711,-0.016768 -0.13211,-0.041329 -0.196884,-0.065619 -0.746522,-0.2799461 -1.181492,-0.3412797 -1.96885,-0.3937701 -0.876349,-0.058423 -1.750314,-0.2000263 -2.625134,-0.2625135 -0.517218,-0.036944 -1.056823,0 -1.57508,0 -1.203187,0 -2.406373,0 -3.609559,0 -0.642175,0 -1.263756,-0.019952 -1.903222,-0.065628 -0.218206,-0.015587 -0.438861,0.024159 -0.656284,0 -0.521313,-0.057924 -1.041839,-0.1484085 -1.57508,-0.196885 -0.4681683,-0.042561 -0.9791366,0.077448 -1.4438238,0 C 7.9084291,7.6074547 6.96866,7.6469459 6.1690646,7.8754017 Z"
       id="path3" />
    <path
       style="fill:none;fill-opacity:1;stroke:#000000;stroke-width:1;stroke-dasharray:none;stroke-opacity:1"
       d="m 1.509452,11.747474 c 0.1093806,-0.10938 0.2073511,-0.231509 0.3281417,-0.328142 0.099606,-0.07969 0.2285352,-0.117199 0.3281418,-0.196885 0.1207906,-0.09663 0.2093075,-0.229113 0.3281417,-0.328141 0.312604,-0.260504 0.6611856,-0.474729 0.9844252,-0.721912 C 3.9452777,9.8152952 4.2226902,9.5709974 4.7252411,9.2535969 4.9156691,9.1333266 5.1249029,9.0448261 5.3158961,8.9254554 5.8345106,8.6013212 6.2649631,8.163171 6.7597199,7.8097734 7.2741707,7.4423084 7.8409302,7.2363541 8.4004284,6.9566048 8.8462333,6.7337024 9.3487985,6.4925881 9.7786236,6.2346929 9.9662098,6.1221413 10.116064,5.9534747 10.303651,5.8409228 11.427653,5.1665213 12.510737,4.4501448 13.51944,3.609559 c 0.177639,-0.1480328 0.429775,-0.2328902 0.590655,-0.3937701 0.01547,-0.015468 -0.01547,-0.050159 0,-0.065628 0.0738,-0.073795 0.240496,-0.1384543 0.328141,-0.1968849 0.130014,0.00655 0.03104,-0.096668 0.06563,-0.1312569 0.07993,-0.079934 0.146627,-0.030742 0.196885,-0.1312566 0.06366,-0.1273271 0.167305,-0.2668257 0.262513,-0.39377 0.06563,-0.087505 0.147969,-0.1646805 0.196885,-0.2625134 0.01957,-0.039133 -0.01957,-0.092124 0,-0.1312567 0.03094,-0.061875 0.134807,-0.1968851 0.06563,-0.1968851 -0.0094,0 0.08861,0.2198697 0.262513,0.3937701 0.0875,0.087505 0.175009,0.1750089 0.262513,0.2625134 0.06563,0.1093806 0.11214,0.2328033 0.196886,0.3281417 0.09306,0.1046938 0.223448,0.1694524 0.328141,0.2625135 0.334493,0.2973271 0.653439,0.6179002 0.984425,0.9187968 0.387525,0.3522946 0.747264,0.7495598 1.181311,1.0500535 0.145011,0.1003921 0.312649,0.1646806 0.459398,0.2625135 0.2331,0.1553998 0.426775,0.3643706 0.656284,0.5250267 0.209,0.1463 0.444013,0.2522566 0.656283,0.3937701 0.363825,0.2425502 0.72211,0.5251262 1.115682,0.7219119 0.615181,0.3075906 1.2704,0.5238644 1.903222,0.78754 0.270922,0.1128842 0.516618,0.2808859 0.78754,0.3937701 0.629108,0.2621282 1.257895,0.5068027 1.903222,0.7219119 0.179433,0.059811 0.355728,0.1122354 0.525027,0.1968852 0.07055,0.035274 0.122057,0.1063141 0.196886,0.1312566 0.04262,0.014206 0.458708,0.1305682 0.459396,0.1312566 0.01548,0.01547 -0.01548,0.05016 0,0.065628 0.03094,0.030938 0.09213,-0.019566 0.131257,0 0.09476,0.047377 0.167762,0.08388 0.262515,0.1312569 0.03962,0.019812 0.166547,-0.030338 0.196884,0 0.08751,0.087504 -0.109381,0.065628 0.06563,0.065628"
       id="path4" />
  </g>
</svg>
