<?xml version="1.0" encoding="utf-8"?><!-- Uploaded to: SVG Repo, www.svgrepo.com, Generator: SVG Repo Mixer Tools -->
<svg width="800px" height="800px" viewBox="0 0 24 24" fill="none" xmlns="http://www.w3.org/2000/svg">
<path d="M7 17H5C3.89543 17 3 16.1046 3 15V11C3 9.34315 4.34315 8 6 8H7M7 17V14H17V17M7 17V18C7 19.1046 7.89543 20 9 20H15C16.1046 20 17 19.1046 17 18V17M17 17H19C20.1046 17 21 16.1046 21 15V11C21 9.34315 19.6569 8 18 8H17M7 8V6C7 4.89543 7.89543 4 9 4H15C16.1046 4 17 4.89543 17 6V8M7 8H17M15 11H17" stroke="#000000" stroke-width="2" stroke-linecap="round" stroke-linejoin="round"/>
</svg>